<mxfile host="app.diagrams.net" modified="2024-03-30T11:09:59.008Z" agent="Mozilla/5.0 (Windows NT 10.0; Win64; x64) AppleWebKit/537.36 (KHTML, like Gecko) Chrome/123.0.0.0 Safari/537.36" version="24.2.1" etag="siUjEQDRdaqpPMqbNoBb" type="github">
  <diagram name="Page-1" id="zzqF3hUeJtzKh8Q8fDaK">
    <mxGraphModel>
      <root>
        <mxCell id="0" />
        <mxCell id="1" parent="0" />
      </root>
    </mxGraphModel>
  </diagram>
</mxfile>
